<?xml version="1.0" encoding="utf-8"?>
<!-- Generator: Adobe Illustrator 22.1.0, SVG Export Plug-In . SVG Version: 6.00 Build 0)  -->
<svg version="1.1" id="Calque_1" xmlns="http://www.w3.org/2000/svg" xmlns:xlink="http://www.w3.org/1999/xlink" x="0px" y="0px"
	 viewBox="0 0 674.3 506.3" style="enable-background:new 0 0 674.3 506.3;" xml:space="preserve">
<style type="text/css">
	.st0{stroke:#000000;stroke-width:12;stroke-miterlimit:10;}
	.st1{fill:#86E520;}
	.st2{fill:#FFFFFF;}
	.st3{fill:#FFFFFF;stroke:#FFFFFF;stroke-width:13;stroke-miterlimit:10;}
</style>
<title>splash</title>
<path d="M191.2,503.8c-4.8,0-8.9-3.6-9.5-8.4l-0.6-5.3h-0.7c-6.1,8.6-17.8,16.2-33.3,16.2c-22,0-33.3-15.5-33.3-31.3
	c0-25.8,22.6-40.2,63.2-40.5c1.2,0,2.2-1,2.2-2.2l0,0c0-9-2.5-25.2-24.8-25.2c-7.4,0-14.7,1.6-21.5,4.5c-3.5,1.6-7.7,0-9.2-3.5
	c-0.1-0.2-0.2-0.4-0.2-0.6l0,0c-1.1-3.2,0.3-6.8,3.4-8.3c9.6-4.5,20-6.8,30.5-6.7c33.3,0,41.4,22.7,41.4,44.5v40.7
	c0,5.9,0.2,11.7,0.6,17c0.4,4.6-3,8.7-7.6,9C191.6,503.7,191.4,503.7,191.2,503.8L191.2,503.8z M179.8,450.4c0-1.2-1-2.2-2.2-2.3
	c-21-0.1-43.9,4.1-43.9,24.6c0,12.8,8.5,18.9,18.7,18.9c14.2,0,23.2-9,26.3-18.2c0.7-2,1.1-4.2,1.1-6.3V450.4z"/>
<path d="M250.4,444.8h0.5c2.7-3.8,6.5-8.6,9.7-12.4l29.4-34.5c1.6-1.9,4-3,6.5-3l0,0c4.7,0,8.6,3.8,8.6,8.6c0,2.2-0.8,4.3-2.3,5.9
	l-23.5,25c-2.8,3-3.1,7.7-0.6,11l33.3,44.6c2.8,3.8,2.1,9.2-1.7,12c-1.5,1.1-3.3,1.7-5.1,1.7h-2.5c-2.8,0-5.4-1.3-7-3.6l-28.8-40
	c-2.8-3.8-8.1-4.7-12-1.9c-0.5,0.4-1,0.8-1.4,1.2l-0.8,0.9c-1.4,1.6-2.2,3.6-2.2,5.8v29.1c0,4.7-3.9,8.6-8.6,8.6h-2.4
	c-4.7,0-8.6-3.9-8.6-8.6V352.6c0-4.7,3.9-8.6,8.6-8.6h2.4c4.7,0,8.6,3.9,8.6,8.6L250.4,444.8z"/>
<path d="M534.1,344c4.9,0,8.8,3.9,8.8,8.8c0,0,0,0,0,0v122.8c0,6.2,0.1,13,0.3,19c0.2,4.9-3.6,9-8.5,9.2c-0.1,0-0.2,0-0.3,0l0,0
	c-4.7,0-8.6-3.7-8.8-8.4l-0.5-10.5h-0.5c-6.1,12.2-19.3,21.4-37.1,21.4c-26.3,0-46.6-22.3-46.6-55.3c-0.2-36.2,22.3-58.5,48.8-58.5
	c16.7,0,27.9,7.9,32.8,16.7h0.5v-56.3c0-4.9,3.9-8.8,8.8-8.8l0,0L534.1,344z M523.1,439.2c0-2.8-0.3-5.6-0.9-8.3
	c-2.9-12.6-13.7-23-28.6-23c-20.5,0-32.6,18-32.6,42.1c0,22,10.8,40.3,32.2,40.3c13.3,0,25.4-8.8,29-23.6c0.7-2.8,1-5.7,0.9-8.6
	L523.1,439.2z"/>
<path d="M674.3,448.4c0,40.3-27.9,57.8-54.2,57.8c-29.5,0-52.2-21.6-52.2-56c0-36.4,23.8-57.8,54-57.8
	C653.1,392.4,674.3,415.1,674.3,448.4z M587.9,449.5c0,23.8,13.7,41.8,33.1,41.8c18.9,0,33.1-17.8,33.1-42.3
	c0-18.4-9.2-41.8-32.6-41.8S587.9,428.8,587.9,449.5z"/>
<path d="M409.2,503.8c-4.8,0-8.9-3.6-9.5-8.4l-0.6-5.3h-0.7c-6.1,8.6-17.8,16.2-33.3,16.2c-22,0-33.3-15.5-33.3-31.3
	c0-25.8,22.6-40.2,63.2-40.5c1.2,0,2.2-1,2.2-2.2l0,0c0-9-2.5-25.2-24.8-25.2c-7.4,0-14.7,1.6-21.5,4.5c-3.5,1.6-7.7,0-9.2-3.5
	c-0.1-0.2-0.2-0.4-0.2-0.6l0,0c-1.1-3.2,0.3-6.8,3.4-8.3c9.6-4.5,20-6.8,30.5-6.7c33.3,0,41.4,22.7,41.4,44.5v40.7
	c0,5.9,0.2,11.7,0.6,17c0.4,4.6-3,8.7-7.6,9C409.6,503.7,409.4,503.7,409.2,503.8L409.2,503.8z M397.8,450.4c0-1.2-1-2.2-2.2-2.3
	c-21-0.1-43.9,4.1-43.9,24.6c0,12.8,8.5,18.9,18.7,18.9c14.2,0,23.2-9,26.3-18.2c0.7-2,1.1-4.2,1.1-6.3L397.8,450.4z"/>
<path d="M49.4,367.3c7.1,0,14.1,1.2,20.7,3.6c4.3,1.6,9.1-0.6,10.7-5c0-0.1,0-0.1,0.1-0.2l0,0c1.5-4.3-0.8-9-5.2-10.5
	c-8.3-2.8-16.9-4.1-25.7-4c-29.2,0-48.6,17.4-48.6,40.8c0,16.6,9.3,28,25.1,36.3c3.9,2,8.8,0.7,11-3.2l1.1-1.9c2.3-4,1-9.1-3-11.5
	c0,0-0.1,0-0.1-0.1c-10-5.7-14.6-12.1-14.6-22C21.1,379.6,28.9,367.3,49.4,367.3z"/>
<path d="M56.8,430.1l-1.1,1.9c-2.2,3.8-1.2,8.6,2.4,11.1c8,5.7,11.4,12.3,11.4,21.4c0,15.2-11.6,25.7-31.4,25.7
	c-9.1-0.1-18.1-1.9-26.4-5.5c-4.3-1.8-9.2,0.2-11,4.5c-0.1,0.3-0.2,0.5-0.3,0.8l0,0c-1.2,4.1,0.8,8.5,4.8,10.2c10,3.9,20.7,6,31.5,6
	c35.5,0,52.6-20.1,52.6-43.3c0-16.3-7-27.2-20.9-35.8c-4-2.4-9.1-1.1-11.5,2.8C56.9,430,56.8,430.1,56.8,430.1z"/>
<path class="st0" d="M45.6,406.5l-22.5,32.8c-1,1.5-3.1,1.9-4.6,0.9c-1.5-1-1.9-3.1-0.9-4.6l0,0l22.5-32.8c1-1.5,3.1-1.9,4.6-0.8
	l0,0C46.3,403,46.7,405,45.6,406.5C45.7,406.5,45.7,406.5,45.6,406.5z"/>
<g id="Calque_1_1_">
	<path class="st1" d="M240.4,0h193.4c17.9,0,32.4,14.5,32.4,32.4v193.4c0,17.9-14.5,32.4-32.4,32.4H240.4
		c-17.9,0-32.4-14.5-32.4-32.4V32.4C208,14.5,222.5,0,240.4,0z"/>
</g>
<g id="Calque_2_1_">
	<path class="st2" d="M344.7,53.3c8.3,0,16.5,1.4,24.3,4.3c5.1,1.9,10.7-0.8,12.6-5.8c0-0.1,0-0.1,0.1-0.2l0,0
		c1.7-5.1-1-10.6-6.1-12.4c-7.6-2.7-17.7-4.7-30.2-4.7c-34.4,0-57.2,20.5-57.2,48c0,19.5,10.9,32.9,29.6,42.7
		c4.6,2.4,10.3,0.8,12.9-3.7l1.3-2.2c2.8-4.7,1.2-10.7-3.5-13.4c-0.1,0-0.1-0.1-0.2-0.1c-11.8-6.7-17.1-14.2-17.1-25.9
		C311.4,67.7,320.6,53.3,344.7,53.3z"/>
	<path class="st2" d="M353.4,127.2l-1.3,2.2c-2.6,4.4-1.4,10.1,2.8,13.1c9.4,6.6,13.4,14.4,13.4,25.2c0,17.8-13.6,30.2-37,30.2
		c-11.2,0-22-2.7-31-6.5c-5-2.1-10.8,0.2-12.9,5.3c-0.1,0.3-0.3,0.7-0.4,1l0,0c-1.5,4.9,1,10,5.7,12c10.1,4.2,24,7.1,37.1,7.1
		c41.7,0,61.9-23.6,61.9-50.9c0-19.2-8.3-32-24.6-42.1c-4.7-2.8-10.7-1.4-13.6,3.3C353.4,127.1,353.4,127.1,353.4,127.2z"/>
	<path class="st3" d="M340.3,99.4l-26.4,38.5c-1.3,1.7-3.8,2-5.4,0.7c-1.6-1.2-2-3.4-1-5.1l26.4-38.5c1.2-1.8,3.6-2.2,5.4-1
		c0,0,0,0,0,0l0,0C341,95.2,341.5,97.6,340.3,99.4C340.3,99.4,340.3,99.4,340.3,99.4z"/>
</g>
</svg>
