<?xml version="1.0" encoding="utf-8"?>
<!-- Generator: Adobe Illustrator 22.1.0, SVG Export Plug-In . SVG Version: 6.00 Build 0)  -->
<svg version="1.1" id="Calque_1" xmlns="http://www.w3.org/2000/svg" xmlns:xlink="http://www.w3.org/1999/xlink" x="0px" y="0px"
	 viewBox="0 0 640 640" style="enable-background:new 0 0 640 640;" xml:space="preserve">
<style type="text/css">
	.st0{fill:#86E520;}
	.st1{fill:#FFFFFF;}
	.st2{fill:#FFFFFF;stroke:#FFFFFF;stroke-width:30;stroke-miterlimit:10;}
</style>
<title>logo_carre_noshadow</title>
<g id="Calque_1_1_">
	<path class="st0" d="M80.3,0h479.3C604,0,640,36,640,80.3v479.3c0,44.4-36,80.3-80.3,80.3H80.3C36,640,0,604,0,559.7V80.3
		C0,36,36,0,80.3,0z"/>
</g>
<g id="Calque_2_1_">
	<path class="st1" d="M338.7,132.1c20.6,0,41,3.5,60.3,10.5c12.6,4.6,26.6-1.9,31.2-14.5c0.1-0.2,0.1-0.3,0.2-0.5l0,0
		c4.3-12.6-2.4-26.3-15-30.7c-18.9-6.7-43.9-11.6-74.8-11.6C255.5,85.2,199,136,199,204.2c0,48.4,27.1,81.6,73.2,105.9
		c11.4,6,25.5,1.9,32.1-9.2l3.3-5.5c6.8-11.6,3-26.5-8.6-33.3c-0.1-0.1-0.3-0.2-0.4-0.2c-29.1-16.6-42.5-35.2-42.5-64.1
		C256.1,167.8,278.9,132.1,338.7,132.1z"/>
	<path class="st1" d="M360.1,315.1l-3.2,5.5c-6.4,11-3.4,25,7,32.3c23.4,16.5,33.3,35.7,33.3,62.4c0,44.2-33.8,74.7-91.6,74.7
		c-27.8,0-54.6-6.6-76.9-16.1c-12.4-5.2-26.8,0.6-32,13.1c-0.3,0.8-0.6,1.6-0.9,2.5l0,0c-3.6,12.1,2.5,24.9,14.1,29.7
		c25,10.4,59.5,17.6,91.9,17.6C405,537,455,478.5,455,410.9c0-47.5-20.5-79.4-61-104.3c-11.5-7-26.6-3.4-33.6,8.2
		C360.3,314.9,360.2,315,360.1,315.1z"/>
	<path class="st2" d="M327.7,246.4l-65.5,95.4c-3.3,4.2-9.3,5-13.5,1.7c-3.8-3-4.9-8.4-2.4-12.5l65.5-95.5c3-4.4,9-5.5,13.4-2.6
		c0,0,0,0,0,0l0,0C329.6,236,330.7,242,327.7,246.4C327.7,246.4,327.7,246.4,327.7,246.4z"/>
</g>
</svg>
